<?xml version="1.0" encoding="UTF-8"?>
<svg xmlns="http://www.w3.org/2000/svg" xmlns:xlink="http://www.w3.org/1999/xlink" xmlns:svgjs="http://svgjs.com/svgjs" version="1.1" width="512" height="512" x="0" y="0" viewBox="0 0 512 512" style="enable-background:new 0 0 512 512" xml:space="preserve" class="">
  <g>
    <g xmlns="http://www.w3.org/2000/svg">
      <g>
        <path d="m432.66 152.51h-48.219c.167-.108.32-.232.493-.332l12.945-7.474c14.606-8.431 19.786-27.675 11.337-42.31l-24.138-41.808c-8.54-14.79-27.519-19.877-42.31-11.337l-12.955 7.479c-7.887 4.552-18.702-1.7-18.702-10.798v-14.956c0-17.079-13.894-30.974-30.973-30.974h-48.274c-17.079 0-30.973 13.895-30.973 30.973v14.958c0 9.095-10.814 15.352-18.703 10.799l-12.955-7.479c-14.791-8.538-33.771-3.452-42.31 11.338l-24.137 41.807c-8.539 14.79-3.454 33.771 11.337 42.311l12.945 7.474c.173.1.326.223.492.331h-48.22c-14.634 0-26.54 11.901-26.54 26.53v235.72c0 14.634 11.906 26.54 26.54 26.54h125.255l-4.262 36.571c-.917 8.044-7.708 14.103-15.8 14.103-.217.01-.427-.001-.641.026h-10.046c-5.523 0-10 4.478-10 10s4.477 10 10 10h164.309c5.523 0 10-4.478 10-10s-4.477-10-10-10h-10.047c-.213-.024-.427-.027-.641-.026-8.092 0-14.883-6.06-15.8-14.103-.001-.008-4.261-36.571-4.261-36.571h125.254c14.634 0 26.54-11.906 26.54-26.54v-235.722c0-14.629-11.906-26.53-26.54-26.53zm-215.936 339.49c1.793-3.627 2.996-7.611 3.478-11.839l4.528-38.86h62.542l4.527 38.853c.484 4.231 1.688 8.219 3.482 11.847h-78.557zm15.547-321.06h47.458c5.523 0 10-4.478 10-10v-45.574c15.407 10.847 25.062 28.765 25.062 48.159 0 11.586-3.372 22.795-9.756 32.423-6.21 9.381-14.92 16.755-25.189 21.323-4.439 1.976-6.816 6.856-5.634 11.569l16.845 67.175c-.532 5.547-5.311 9.944-10.918 9.944h-48.28c-5.593 0-10.394-4.395-10.917-9.939l16.847-67.18c1.183-4.717-1.198-9.6-5.643-11.572-21.224-9.422-34.938-30.518-34.938-53.743 0-19.395 9.655-37.312 25.062-48.159v45.574c.001 5.523 4.479 10 10.001 10zm-108.148-43.555c-5.24-3.025-7.042-9.75-4.017-14.99l24.138-41.807c3.025-5.241 9.75-7.043 14.99-4.018l12.955 7.479c21.025 12.142 48.703-3.903 48.703-28.119v-14.957c0-6.051 4.922-10.973 10.973-10.973h48.274c6.051 0 10.974 4.923 10.974 10.974v14.958c0 24.218 27.676 40.258 48.702 28.118l12.954-7.479c5.241-3.023 11.965-1.223 14.99 4.017l24.138 41.808c2.991 5.181 1.152 12.005-4.016 14.989l-12.945 7.474c-9.7 5.6-15.591 15.667-15.935 27.071-.68 11.738 5.821 23.34 15.935 29.184l12.945 7.468c5.171 2.981 7.012 9.802 4.017 14.989l-24.138 41.808c-2.987 5.174-9.807 7.005-14.989 4.012l-12.956-7.478c-12.215-7.057-27.69-4.926-38.086 4.425l-6.183-24.656c10.477-6.083 19.424-14.503 26.165-24.685 8.559-12.909 13.083-27.94 13.083-43.47 0-32.904-20.741-62.637-51.612-73.983-3.067-1.128-6.492-.685-9.173 1.186-2.68 1.87-4.277 4.932-4.277 8.2v52.013h-27.458v-52.015c0-3.269-1.597-6.33-4.277-8.2-2.679-1.872-6.104-2.315-9.173-1.186-30.871 11.347-51.612 41.079-51.612 73.983 0 28.267 15.16 54.18 39.248 68.158l-6.182 24.651c-10.412-9.367-25.874-11.477-38.084-4.426l-12.967 7.483c-5.141 2.974-12.009 1.13-14.981-4.016l-24.136-41.812c-2.995-5.178-1.151-12.002 4.016-14.984l12.95-7.472c10.12-5.849 16.561-17.413 15.931-29.141-.332-11.42-6.225-21.503-15.936-27.109zm315.077 287.375c0 3.606-2.934 6.54-6.54 6.54h-353.32c-3.606 0-6.54-2.934-6.54-6.54v-25.952h137.455c5.523 0 10-4.478 10-10s-4.477-10-10-10h-137.455v-189.768c0-3.601 2.934-6.53 6.54-6.53h49.482c-.613.527-.92.793-1.755 1.275l-12.946 7.475c-14.604 8.429-19.773 27.695-11.335 42.31l24.134 41.81c8.428 14.601 27.68 19.781 42.313 11.335l12.955-7.479c7.887-4.552 18.703 1.701 18.703 10.799v14.957c0 16.855 14.129 30.979 30.97 30.979h48.281c16.841 0 30.97-14.123 30.97-30.979v-14.957c0-9.096 10.814-15.352 18.703-10.799l12.953 7.479c14.622 8.442 33.881 3.273 42.312-11.333l24.141-41.811c8.45-14.637 3.261-33.881-11.344-42.312l-12.942-7.472c-.807-.466-1.152-.756-1.756-1.276h49.482c3.606 0 6.54 2.93 6.54 6.53v189.768h-140.604c-5.523 0-10 4.478-10 10s4.477 10 10 10h140.603z" fill="#ffffff" data-original="#000000" style="" class=""/>
        <path d="m264.23 374.979c-3.435-8.239-15.618-7.993-18.636.461-1.429 4.001-.112 8.638 3.257 11.248 3.256 2.523 7.807 2.794 11.331.665 4.183-2.527 5.894-7.867 4.048-12.374z" fill="#ffffff" data-original="#000000" style="" class=""/>
      </g>
    </g>
  </g>
</svg>
