<?xml version="1.0" encoding="UTF-8"?>
<svg xmlns="http://www.w3.org/2000/svg" xmlns:xlink="http://www.w3.org/1999/xlink" xmlns:svgjs="http://svgjs.com/svgjs" version="1.1" width="512" height="512" x="0" y="0" viewBox="0 0 64 64" style="enable-background:new 0 0 512 512" xml:space="preserve" class="">
  <g>
    <g xmlns="http://www.w3.org/2000/svg">
      <circle cx="32" cy="30" r="1" fill="#ffffff" data-original="#000000" style="" class=""/>
      <path d="m32 35c2.757 0 5-2.243 5-5 0-1.017-.309-1.963-.833-2.753l3.08-3.08c.791.524 1.736.833 2.753.833 2.757 0 5-2.243 5-5s-2.243-5-5-5-5 2.243-5 5c0 1.017.309 1.962.833 2.753l-3.08 3.08c-.791-.524-1.736-.833-2.753-.833-2.414 0-4.434 1.721-4.899 4h-2.285c-.414-1.161-1.514-2-2.816-2-1.654 0-3 1.346-3 3s1.346 3 3 3c1.302 0 2.402-.839 2.816-2h2.285c.465 2.279 2.485 4 4.899 4zm10-18c1.654 0 3 1.346 3 3s-1.346 3-3 3-3-1.346-3-3 1.346-3 3-3zm-10 10c1.654 0 3 1.346 3 3s-1.346 3-3 3-3-1.346-3-3 1.346-3 3-3zm-10 4c-.552 0-1-.449-1-1s.448-1 1-1 1 .449 1 1-.448 1-1 1z" fill="#ffffff" data-original="#000000" style="" class=""/>
      <circle cx="42" cy="20" r="1" fill="#ffffff" data-original="#000000" style="" class=""/>
      <path d="m2.195 47h2.805v8h2v-10h-1.195l3.195-5.113 3.195 5.113h-1.195v18h2v-16h2.805l-6.805-10.887z" fill="#ffffff" data-original="#000000" style="" class=""/>
      <path d="m5 57h2v6h-2z" fill="#ffffff" data-original="#000000" style="" class=""/>
      <path d="m51 13h2v-4h-1.195l3.195-5.113 3.195 5.113h-1.195v18h2v-16h2.805l-6.805-10.887-6.805 10.887h2.805z" fill="#ffffff" data-original="#000000" style="" class=""/>
      <path d="m62.015 41.989c-.978-.163-1.789-.808-2.169-1.725-.379-.916-.261-1.945.315-2.752l.58-.812-5.44-5.441-.813.581c-.69.492-1.539.627-2.342.426.511-1.682.796-3.449.838-5.266h.016v-12h-2v2.984c-3.18-6.492-9.837-10.984-17.541-10.984h-2.918c-1.169 0-2.309.122-3.422.319l-5.047-5.047-1.459 1.458c-.264.264-.658.338-1.035.184-.351-.143-.578-.477-.578-.851v-2.063h-8v2.063c0 .374-.227.708-.603.862-.351.145-.747.068-1.009-.195l-1.459-1.458-5.657 5.656 1.458 1.46c.264.264.34.659.185 1.035-.144.35-.478.577-.852.577h-2.063v8h2.063c.373 0 .707.227.862.604.145.349.068.745-.196 1.009l-1.457 1.459 5.656 5.656 1.459-1.458c.264-.263.658-.339 1.035-.184.351.143.578.477.578.851h.014c.145 7.289 4.244 13.81 10.788 17.082l1.198.599v2.382c0 1.103.897 2 2 2h4v.848l.989.164c.684.114 1.276.474 1.705.988h-6.694c-1.103 0-2 .897-2 2v1c0 4.962 4.037 9 9 9 2.828 0 5.353-1.314 7.004-3.361.432-.026.864.043 1.267.209.913.378 1.555 1.185 1.717 2.162l.166.99h7.695l.161-.984c.163-.979.808-1.79 1.726-2.169.914-.379 1.944-.263 2.752.315l.813.58 5.441-5.441-.579-.81c-.578-.809-.695-1.84-.315-2.759.379-.915 1.188-1.558 2.162-1.72l.99-.164v-7.695zm-23.015 9.011h-.469c-.421-.628-.76-1.295-1.009-2h1.478c.222 0 .432-.045.631-.112 1.103 2.421 3.54 4.112 6.369 4.112 3.859 0 7-3.14 7-7 0-3.102-1.987-5.72-4.782-6.643.459-.527.891-1.075 1.29-1.647 3.314 1.397 5.492 4.638 5.492 8.29 0 4.962-4.037 9-9 9-1.803 0-3.519-.529-5-1.523v-.477c0-1.103-.897-2-2-2zm4-9.749c-.545.352-1.106.684-1.696.979l-.304.152v-13.382h2zm-2 3.367 1.198-.599c1.607-.804 3.064-1.807 4.355-2.966 2.519.277 4.447 2.368 4.447 4.947 0 2.757-2.243 5-5 5s-5-2.243-5-5zm-33.026-19.764-.045.045-2.828-2.829.044-.044c.838-.837 1.085-2.089.62-3.209-.453-1.104-1.514-1.817-2.702-1.817h-.063v-4h.063c1.188 0 2.248-.713 2.71-1.838.456-1.099.209-2.351-.628-3.188l-.044-.045 2.828-2.829.045.044c.837.837 2.087 1.082 3.209.62 1.104-.452 1.817-1.513 1.817-2.701v-.063h4v.063c0 1.188.713 2.249 1.839 2.711 1.101.455 2.352.208 3.188-.628l.045-.045 2.756 2.756c-1.391.426-2.71 1.013-3.951 1.723-1.506-1.628-3.643-2.58-5.877-2.58-4.411 0-8 3.589-8 8 0 3.078 1.785 5.849 4.509 7.176-.154.67-.276 1.352-.358 2.047-1.098-.449-2.343-.202-3.177.631zm5.799-8.295c-.47-.373-.773-.938-.773-1.559 0-1.103.897-2 2-2 .419 0 .81.143 1.142.377-.893.976-1.687 2.04-2.369 3.182zm3.81-4.605c-.713-.606-1.621-.954-2.583-.954-2.206 0-4 1.794-4 4 0 1.367.717 2.617 1.826 3.344-.284.612-.539 1.239-.76 1.883-1.865-1.05-3.066-3.038-3.066-5.227 0-3.309 2.691-6 6-6 1.557 0 3.046.624 4.156 1.691-.547.394-1.07.816-1.573 1.263zm5.113 30.276c-.59-.295-1.152-.628-1.696-.979v-4.251h2v5.382zm-3.696-7.23v4.749c-3.772-3.278-6-8.038-6-13.208 0-9.672 7.869-17.541 17.541-17.541h2.918c9.672 0 17.541 7.869 17.541 17.541 0 5.17-2.228 9.93-6 13.208v-12.749h-6v20h-4v-10h-6v10h-4v-12zm14 12h-2v-8h2zm1 3.967c-.332-.802-.874-1.459-1.533-1.967h2.963c.196.69.462 1.359.79 2h-2.21c-.004-.011-.006-.022-.01-.033zm-2 10.033c-3.859 0-7-3.14-7-7v-1h14v1c0 3.86-3.141 7-7 7zm29-12.797c-1.352.43-2.446 1.426-3 2.764-.555 1.339-.485 2.819.166 4.081l-3.118 3.117c-1.26-.652-2.739-.721-4.077-.167s-2.336 1.648-2.767 3.001h-4.407c-.429-1.351-1.424-2.446-2.762-3-.279-.116-.569-.194-.862-.256.295-.642.521-1.321.659-2.034 1.581.847 3.339 1.291 5.168 1.291 6.065 0 11-4.935 11-11 0-4.357-2.541-8.23-6.431-10.001.327-.592.624-1.201.888-1.827 1.203.357 2.482.235 3.591-.337l3.117 3.117c-.651 1.26-.721 2.74-.167 4.078.555 1.339 1.65 2.336 3.002 2.767z" fill="#ffffff" data-original="#000000" style="" class=""/>
    </g>
  </g>
</svg>
