<?xml version="1.0" encoding="UTF-8"?>
<svg xmlns="http://www.w3.org/2000/svg" xmlns:xlink="http://www.w3.org/1999/xlink" xmlns:svgjs="http://svgjs.com/svgjs" version="1.1" width="512" height="512" x="0" y="0" viewBox="0 0 512 512" style="enable-background:new 0 0 512 512" xml:space="preserve" class="">
  <g>
    <g xmlns="http://www.w3.org/2000/svg">
      <path d="m322.127 97.619c0-5.522-4.478-9.998-10-9.998h-6.498v-20.949c0-5.522-4.478-9.998-10-9.998s-10 4.476-10 9.998v20.949h-19.629v-36.224c0-5.522-4.478-9.998-10-9.998s-10 4.476-10 9.998v36.224h-19.629v-20.949c0-5.522-4.478-9.998-10-9.998s-10 4.476-10 9.998v20.949h-6.526c-5.522 0-10 4.476-10 9.998v6.496h-20.927c-5.522 0-10 4.476-10 9.998s4.478 9.998 10 9.998h20.927v19.623h-36.206c-5.522 0-10 4.476-10 9.998s4.478 9.998 10 9.998h36.206v19.623h-20.927c-5.522 0-10 4.476-10 9.998s4.478 9.998 10 9.998h20.927v6.524c0 5.522 4.478 9.998 10 9.998h6.526v20.921c0 5.522 4.478 9.998 10 9.998s10-4.476 10-9.998v-20.921h19.629v36.196c0 5.522 4.478 9.998 10 9.998s10-4.476 10-9.998v-36.196h19.629v20.921c0 5.522 4.478 9.998 10 9.998s10-4.476 10-9.998v-20.921h6.498c5.522 0 10-4.476 10-9.998v-6.524h20.955c5.522 0 10-4.476 10-9.998s-4.478-9.998-10-9.998h-20.955v-19.623h36.234c5.522 0 10-4.476 10-9.998s-4.478-9.998-10-9.998h-36.234v-19.623h20.955c5.522 0 10-4.476 10-9.998s-4.478-9.998-10-9.998h-20.955zm-112.282 102.257v-92.259h92.282v92.259z" fill="#ffffff" data-original="#000000" style="" class=""/>
      <path d="m445.5 433.793h-19.112v-67.767c0-5.522-4.478-9.998-10-9.998h-100.375l-50.013-23.601v-25.371c37.29-2.379 72.017-18.027 98.667-44.684 47.064-47.052 58.541-118.546 28.558-177.904-2.49-4.93-8.504-6.908-13.434-4.418-4.93 2.489-6.908 8.503-4.418 13.431 26.079 51.63 16.094 113.819-24.85 154.752-25.243 25.25-58.813 39.155-94.523 39.155s-69.28-13.905-94.524-39.156c-52.108-52.094-52.107-136.88 0-189.001 40.948-40.938 103.153-50.911 154.786-24.815 4.932 2.49 10.944.516 13.437-4.413 2.491-4.928.516-10.942-4.413-13.433-59.367-30.003-130.88-18.54-177.953 28.523-59.903 59.919-59.902 157.389 0 217.276 26.651 26.659 61.378 42.307 98.668 44.686v25.371l-50.013 23.602h-100.376c-5.522 0-10 4.476-10 9.998v67.767h-19.112c-5.522 0-10 4.476-10 9.998v58.21c0 5.522 4.478 9.998 10 9.998h58.225c5.522 0 10-4.476 10-9.998v-58.21c0-5.522-4.478-9.998-10-9.998h-19.112v-57.769h90.377l50.01 23.577v34.192h-19.112c-5.522 0-10 4.476-10 9.998v58.21c0 5.522 4.478 9.998 10 9.998h58.225c5.522 0 10-4.476 10-9.998v-58.21c0-5.522-4.478-9.998-10-9.998h-19.113v-34.192l50.01-23.576h90.377v57.769h-19.112c-5.522 0-10 4.476-10 9.998v58.21c0 5.522 4.478 9.998 10 9.998h58.225c5.522 0 10-4.476 10-9.998v-58.21c0-5.522-4.478-9.999-10-9.999zm-330.775 58.211h-38.225v-38.214h38.225zm160.387 0h-38.225v-38.214h38.225zm-19.112-109.796-34.334-16.186 34.334-16.202 34.334 16.202zm179.5 109.796h-38.225v-38.214h38.225z" fill="#ffffff" data-original="#000000" style="" class=""/>
      <path d="m348.68 56.69c1.749 3.496 5.262 5.506 8.918 5.506 1.509 0 3.042-.342 4.484-1.063 4.939-2.469 6.928-8.503 4.458-13.442s-8.48-6.941-13.416-4.471c-4.94 2.469-6.942 8.475-4.473 13.414z" fill="#ffffff" data-original="#000000" style="" class=""/>
    </g>
  </g>
</svg>
